<svg width="512" height="512" viewBox="0 0 512 512" xmlns="http://www.w3.org/2000/svg">
  <defs>
    <linearGradient id="bg" x1="0%" y1="0%" x2="100%" y2="100%">
      <stop offset="0%" style="stop-color:#1a6fd4"/>
      <stop offset="100%" style="stop-color:#0f4a9c"/>
    </linearGradient>
  </defs>
  <rect width="512" height="512" rx="90" fill="url(#bg)"/>
  <rect x="116" y="116" width="280" height="280" rx="14" fill="#ffffff"/>
  <!-- barcode bars -->
  <rect x="140" y="152" width="6"  height="140" fill="#1a6fd4"/>
  <rect x="151" y="152" width="3"  height="140" fill="#1a6fd4"/>
  <rect x="159" y="152" width="9"  height="140" fill="#1a6fd4"/>
  <rect x="173" y="152" width="4"  height="140" fill="#1a6fd4"/>
  <rect x="182" y="152" width="7"  height="140" fill="#1a6fd4"/>
  <rect x="194" y="152" width="3"  height="140" fill="#1a6fd4"/>
  <rect x="202" y="152" width="10" height="140" fill="#1a6fd4"/>
  <rect x="217" y="152" width="4"  height="140" fill="#1a6fd4"/>
  <rect x="226" y="152" width="6"  height="140" fill="#1a6fd4"/>
  <rect x="237" y="152" width="3"  height="140" fill="#1a6fd4"/>
  <rect x="245" y="152" width="8"  height="140" fill="#1a6fd4"/>
  <rect x="258" y="152" width="4"  height="140" fill="#1a6fd4"/>
  <rect x="267" y="152" width="6"  height="140" fill="#1a6fd4"/>
  <rect x="278" y="152" width="3"  height="140" fill="#1a6fd4"/>
  <rect x="286" y="152" width="9"  height="140" fill="#1a6fd4"/>
  <rect x="300" y="152" width="4"  height="140" fill="#1a6fd4"/>
  <rect x="309" y="152" width="7"  height="140" fill="#1a6fd4"/>
  <rect x="321" y="152" width="3"  height="140" fill="#1a6fd4"/>
  <rect x="329" y="152" width="6"  height="140" fill="#1a6fd4"/>
  <rect x="340" y="152" width="10" height="140" fill="#1a6fd4"/>
  <rect x="355" y="152" width="4"  height="140" fill="#1a6fd4"/>
  <rect x="364" y="152" width="6"  height="140" fill="#1a6fd4"/>
  <rect x="375" y="152" width="5"  height="140" fill="#1a6fd4"/>
  <!-- number strip -->
  <rect x="140" y="304" width="232" height="22" rx="4" fill="#e8f0fc"/>
  <!-- corner markers -->
  <polyline points="96,146 96,96 146,96" fill="none" stroke="#ffffff" stroke-width="12" stroke-linecap="round" stroke-linejoin="round"/>
  <polyline points="366,96 416,96 416,146" fill="none" stroke="#ffffff" stroke-width="12" stroke-linecap="round" stroke-linejoin="round"/>
  <polyline points="96,366 96,416 146,416" fill="none" stroke="#ffffff" stroke-width="12" stroke-linecap="round" stroke-linejoin="round"/>
  <polyline points="366,416 416,416 416,366" fill="none" stroke="#ffffff" stroke-width="12" stroke-linecap="round" stroke-linejoin="round"/>
</svg>
